HIERARCHY
ROOT root
{
	OFFSET 0.000000 0.000000 0.000000
	CHANNELS 6 Xposition Yposition Zposition Zrotation Yrotation Xrotation
	JOINT lhip
	{
		OFFSET 0.058581 -0.082280 -0.017664
		CHANNELS 3 Zrotation Yrotation Xrotation
		JOINT lknee
		{
			OFFSET 0.043451 -0.386469 0.008037
			CHANNELS 3 Zrotation Yrotation Xrotation
			JOINT lankle
			{
				OFFSET -0.014790 -0.426874 -0.037428
				CHANNELS 3 Zrotation Yrotation Xrotation
				JOINT ltoe
				{
					OFFSET 0.041054 -0.060286 0.122042
					CHANNELS 3 Zrotation Yrotation Xrotation
					End Site
					{
						OFFSET 0.000000 0.000000 0.000000
					}
				}
			}
		}
	}
	JOINT rhip
	{
		OFFSET -0.060310 -0.090513 -0.013543
		CHANNELS 3 Zrotation Yrotation Xrotation
		JOINT rknee
		{
			OFFSET -0.043257 -0.383688 -0.004843
			CHANNELS 3 Zrotation Yrotation Xrotation
			JOINT rankle
			{
				OFFSET 0.019056 -0.420046 -0.034562
				CHANNELS 3 Zrotation Yrotation Xrotation
				JOINT rtoe
				{
					OFFSET -0.034840 -0.062106 0.130323
					CHANNELS 3 Zrotation Yrotation Xrotation
					End Site
					{
						OFFSET 0.000000 0.000000 0.000000
					}
				}
			}
		}
	}
	JOINT lowerback
	{
		OFFSET 0.004439 0.124404 -0.038385
		CHANNELS 3 Zrotation Yrotation Xrotation
		JOINT upperback
		{
			OFFSET 0.004488 0.137956 0.026820
			CHANNELS 3 Zrotation Yrotation Xrotation
			JOINT chest
			{
				OFFSET -0.002265 0.056032 0.002855
				CHANNELS 3 Zrotation Yrotation Xrotation
				JOINT lowerneck
				{
					OFFSET -0.013390 0.211636 -0.033468
					CHANNELS 3 Zrotation Yrotation Xrotation
					JOINT upperneck
					{
						OFFSET 0.010113 0.088937 0.050410
						CHANNELS 3 Zrotation Yrotation Xrotation
						End Site
						{
							OFFSET 0.000000 0.000000 0.000000
						}
					}
				}
				JOINT lclavicle
				{
					OFFSET 0.071702 0.114000 -0.018898
					CHANNELS 3 Zrotation Yrotation Xrotation
					JOINT lshoulder
					{
						OFFSET 0.122921 0.045205 -0.019046
						CHANNELS 3 Zrotation Yrotation Xrotation
						JOINT lelbow
						{
							OFFSET 0.255332 -0.015649 -0.022946
							CHANNELS 3 Zrotation Yrotation Xrotation
							JOINT lwrist
							{
								OFFSET 0.265709 0.012698 -0.007375
								CHANNELS 3 Zrotation Yrotation Xrotation
								End Site
								{
									OFFSET 0.000000 0.000000 0.000000
								}
							}
						}
					}
				}
				JOINT rclavicle
				{
					OFFSET -0.082954 0.112472 -0.023707
					CHANNELS 3 Zrotation Yrotation Xrotation
					JOINT rshoulder
					{
						OFFSET -0.113228 0.046853 -0.008472
						CHANNELS 3 Zrotation Yrotation Xrotation
						JOINT relbow
						{
							OFFSET -0.260127 -0.014369 -0.031269
							CHANNELS 3 Zrotation Yrotation Xrotation
							JOINT rwrist
							{
								OFFSET -0.269108 0.006794 -0.006027
								CHANNELS 3 Zrotation Yrotation Xrotation
								End Site
								{
									OFFSET 0.000000 0.000000 0.000000
								}
							}
						}
					}
				}
			}
		}
	}
}
MOTION
Frames: 14
Frame Time: 0.033333
-0.307329 0.157255 1.472824 -106.411293 -1.798007 85.206694 0.711241 2.127059 -29.992266 -1.114174 21.421733 60.540827 8.998934 15.954548 -37.759433 0.000000 -0.000000 0.000000 -1.471967 -1.967473 2.640555 -0.988381 12.490240 25.947126 15.485036 5.191638 8.887910 0.000000 -0.000000 0.000000 -2.800781 8.817378 20.490318 0.188007 -2.932044 1.530264 -0.901084 2.326066 2.009879 0.491692 4.318047 -4.622079 0.426515 -1.437022 21.766473 -29.903897 -9.646786 -5.041268 -41.165055 -6.856080 6.035350 10.063764 -26.823070 -5.616438 12.775636 -10.259887 8.291402 29.550094 10.929155 3.115990 50.802815 16.927499 17.648262 -17.019079 44.756127 -1.378916 -3.319048 7.067663 7.618659 
-0.314878 0.154877 1.481832 -106.044668 -1.485533 85.274319 0.524053 2.297372 -29.008620 -1.488180 21.045387 59.240395 8.983503 15.791524 -37.569594 0.000000 -0.000000 0.000000 -1.530226 -2.340799 2.408904 -1.156839 12.041430 25.746388 16.244530 5.173280 11.666474 0.000000 -0.000000 0.000000 -2.900822 8.789913 20.371617 0.156207 -3.004831 1.878041 -0.940490 2.299727 1.829442 0.404401 4.346030 -4.913841 0.431678 -1.522233 21.778530 -29.887206 -9.755438 -5.265432 -41.087824 -6.930964 5.733770 9.748792 -26.566103 -5.922270 12.912070 -10.552037 8.798177 29.443727 11.054733 2.640225 51.349785 16.505752 17.744162 -17.395853 44.854823 -1.892074 -2.358778 8.044777 8.606630 
-0.322396 0.153163 1.492613 -104.778838 -0.923837 85.072145 0.166369 2.271504 -26.921246 -2.714232 19.617550 56.171819 9.347110 16.067701 -36.763978 0.000000 -0.000000 0.000000 -1.248474 -2.277318 2.592673 -0.862558 11.605831 25.325872 16.598642 3.229271 16.644055 0.000000 -0.000000 0.000000 -2.953198 8.183813 20.723521 0.115914 -3.062140 0.763295 -0.779780 2.372020 2.334467 0.135840 3.214385 -4.466696 0.809080 -0.419287 21.394810 -29.900412 -9.682122 -4.495331 -41.248393 -7.928587 5.664469 9.970600 -25.485054 -6.569941 12.601879 -10.061810 8.516811 30.626892 10.946949 2.807699 50.108458 15.432091 18.044278 -17.345293 45.296321 -2.614825 -2.423177 6.716174 7.844137 
-0.329837 0.150929 1.502269 -104.046759 -0.480285 85.080758 0.007841 2.082325 -25.565457 -3.082130 18.998892 54.301388 9.525836 15.989755 -36.230033 0.000000 -0.000000 0.000000 -1.004389 -1.960702 2.025920 -0.540380 11.139140 26.134038 16.169623 2.827253 17.843527 0.000000 -0.000000 0.000000 -2.912156 7.813174 20.254508 0.066904 -2.820949 1.335929 -0.866955 2.208552 2.041090 0.040804 2.936713 -4.447550 0.771983 -0.856045 21.389473 -30.147257 -9.683078 -4.413591 -41.495765 -7.909918 5.339270 10.360528 -25.444264 -6.947739 11.438221 -9.808345 9.126225 30.301328 10.895636 2.851394 50.614317 15.412744 17.792580 -16.830209 44.548302 -2.203683 -1.382801 7.528570 8.982562 
-0.336862 0.148940 1.512153 -102.550816 -0.229502 85.384017 -0.608431 1.279048 -23.721451 -4.039936 17.782266 50.796239 9.843608 15.965988 -35.122330 0.000000 -0.000000 0.000000 -0.929420 -0.956947 0.371186 0.045676 9.921451 28.856132 16.642684 2.437029 15.367466 0.000000 -0.000000 0.000000 -3.374585 7.115128 19.010955 0.357083 -2.694843 1.697055 -0.940692 2.316977 2.316584 0.571428 4.375465 -4.381527 -1.119040 -0.247911 21.640711 -30.210912 -9.215153 -4.395046 -42.317155 -8.961207 6.367651 10.654224 -24.488201 -7.456760 12.025071 -10.041433 9.227347 31.033750 10.329096 3.577264 49.902809 15.440311 18.429923 -16.952091 43.479075 -1.658582 -2.291165 7.451901 8.598802 
-0.343015 0.147121 1.522494 -101.854490 -0.042988 85.246027 -0.908616 1.067612 -22.243193 -4.552448 16.970484 48.846803 9.793697 15.768798 -34.585580 0.000000 -0.000000 0.000000 -0.898712 -0.347325 -0.391378 0.161060 9.116431 30.569752 16.393658 2.781495 12.712608 0.000000 -0.000000 0.000000 -3.327384 6.623783 18.768150 0.121278 -2.258305 1.707384 -1.040838 2.053805 2.363254 0.576070 4.489942 -4.280634 -1.153700 -0.226281 21.633257 -30.484919 -8.867979 -4.821065 -42.562283 -8.776409 6.705047 10.935638 -24.471557 -7.666696 12.465949 -9.822081 10.233126 31.053577 9.965324 2.848648 50.407552 15.231865 18.503567 -15.944610 42.162808 -1.140052 -1.670711 7.742625 10.326645 
-0.349897 0.144948 1.532734 -100.485039 0.244220 85.020750 -1.354557 0.750328 -19.916533 -5.642965 15.190162 45.749668 9.917366 15.602616 -33.521252 0.000000 -0.000000 0.000000 -1.025732 0.400513 -1.813587 0.309488 7.405795 33.644675 14.043831 1.176614 8.215261 0.000000 -0.000000 0.000000 -3.537383 5.796517 18.285171 0.113303 -1.883717 1.845951 -1.214482 2.423805 2.429673 1.041958 4.476892 -4.617526 -1.537633 -0.413945 22.021666 -30.560648 -8.516658 -4.394150 -43.424211 -9.263665 7.122640 11.210455 -24.627516 -7.205345 12.257282 -9.805096 9.829448 31.440873 9.986476 3.791410 50.073083 14.338283 18.085071 -16.961370 41.442462 -1.264464 -1.109284 7.201797 10.397492 
-0.357127 0.142887 1.542566 -98.989790 0.370422 84.710064 -1.827991 0.255972 -17.658508 -6.249308 13.969886 42.973794 9.919427 15.276032 -32.662406 0.000000 -0.000000 0.000000 -1.385149 1.012257 -3.051627 -0.216320 4.888908 36.638314 12.062102 -1.243241 4.207501 0.000000 -0.000000 0.000000 -3.635563 4.919896 17.662579 0.082152 -1.531963 2.178204 -1.327337 2.054784 2.302223 1.216579 4.594532 -4.343437 -1.776701 -0.281641 22.078742 -30.888218 -7.870498 -4.258596 -44.011590 -9.162945 7.796675 11.553176 -24.718849 -7.122922 11.800088 -9.467259 9.336115 31.517568 9.327008 3.492066 50.436834 14.083947 18.515737 -16.464350 39.908785 -0.848195 -0.722460 7.024067 11.340281 
-0.365874 0.140295 1.551239 -96.807966 0.708033 84.190689 -2.209480 -0.246789 -14.812477 -7.043984 12.039040 39.691060 9.851436 14.838210 -31.755348 0.000000 -0.000000 0.000000 -1.442711 1.415856 -4.296025 -1.181116 2.265076 40.018034 9.209066 -5.718064 -1.209884 0.000000 -0.000000 0.000000 -3.559618 4.080619 17.099647 0.110421 -1.227056 2.399835 -1.398795 2.100912 2.406597 1.431344 4.112841 -4.485573 -1.364373 -0.431381 21.640636 -31.011861 -7.857791 -3.198930 -45.087155 -9.292172 8.220249 12.156964 -24.845740 -6.893600 11.991534 -9.098203 8.134913 31.850786 9.273939 4.424190 50.141486 12.570750 17.740869 -18.032436 39.761173 -2.000700 -0.000879 6.505817 11.252290 
-0.373445 0.138722 1.558869 -94.868804 1.042792 83.764003 -2.444938 -0.751496 -12.626625 -7.533722 10.407393 37.445393 9.646782 14.596065 -31.302339 0.000000 -0.000000 0.000000 -1.593926 1.917372 -5.320882 -1.952874 0.527719 42.605183 7.857314 -8.802902 -5.452519 0.000000 -0.000000 0.000000 -3.520370 3.287480 16.287340 0.279326 -1.116195 2.505293 -1.425052 1.549844 2.542527 1.580972 4.241549 -4.173892 -1.889349 -0.270327 22.225351 -31.333715 -6.837144 -3.416885 -45.935549 -9.467274 8.633385 11.760215 -24.171463 -6.458339 12.360202 -8.953430 7.771830 31.872863 8.112403 3.560500 50.370042 12.136111 18.161913 -16.877365 38.497719 -1.680458 -0.579152 6.834086 11.677927 
-0.380904 0.136508 1.565175 -92.576217 1.476024 83.452860 -2.810350 -0.798841 -10.701534 -7.506336 8.299572 35.650629 9.441072 13.852332 -31.012991 0.000000 -0.000000 0.000000 -1.767059 2.094943 -6.399393 -2.759174 -0.883418 44.720545 6.082234 -10.760605 -10.458528 0.000000 -0.000000 0.000000 -3.181457 2.533882 15.287279 0.460424 -0.963573 3.160333 -1.510589 0.795292 2.538839 1.559159 4.842967 -4.295921 -2.484232 -0.728112 22.477969 -31.940994 -6.310591 -4.117966 -46.567613 -9.032263 9.194054 11.429587 -23.629844 -6.553088 12.801300 -8.362851 7.438513 31.544770 7.001620 2.266711 50.851201 11.416106 18.392028 -15.816640 37.461070 -1.819999 -1.686641 7.378659 12.550080 
-0.387707 0.134664 1.571189 -90.446761 1.823933 83.042305 -3.181617 -0.900813 -8.736763 -7.573555 6.011310 33.835636 9.233313 13.620944 -30.786576 0.000000 -0.000000 0.000000 -1.902483 2.494602 -7.587756 -3.201665 -1.604890 46.760601 4.899278 -13.271915 -14.397383 0.000000 -0.000000 0.000000 -2.988676 2.013699 14.705266 0.542295 -0.766129 3.418328 -1.631083 0.565536 2.653215 1.681645 4.825663 -4.361584 -2.623550 -0.703893 22.125969 -32.254918 -6.097606 -4.095253 -47.367226 -9.232168 9.728802 11.206460 -22.858074 -6.437680 13.642628 -7.710609 6.462656 31.845953 6.405320 1.987302 50.596599 10.109651 18.195318 -16.277802 37.302620 -2.634380 -1.793688 7.368057 12.089881 
-0.394110 0.133066 1.576718 -88.362192 2.152186 82.496676 -3.432100 -0.937729 -6.654984 -7.707907 3.690326 32.094216 8.966318 13.450188 -30.361852 0.000000 -0.000000 0.000000 -1.896120 2.878969 -8.793177 -3.419284 -1.721036 48.721773 3.732938 -14.839266 -17.082936 0.000000 -0.000000 0.000000 -3.017654 1.633329 14.329386 0.676859 -0.739702 3.957948 -1.649119 0.666386 2.464543 1.967862 5.095087 -4.572776 -2.816829 -1.102408 22.074522 -32.342279 -6.186995 -3.740088 -48.348727 -9.580222 9.846401 11.166169 -21.937277 -6.719121 14.129428 -7.841793 6.728384 32.050262 6.375152 2.716588 50.143023 8.867017 17.551502 -17.141119 37.405864 -3.508161 -1.904652 7.271188 11.111921 
-0.400383 0.131479 1.581962 -86.101039 2.502498 82.182125 -3.555706 -1.046523 -4.762106 -7.628639 1.815833 30.223691 8.936203 12.847159 -29.802841 0.000000 -0.000000 0.000000 -1.830841 3.526334 -10.151635 -3.148324 -1.799220 50.287278 3.072589 -15.865697 -19.663696 0.000000 -0.000000 0.000000 -2.966935 1.253640 13.654998 0.800370 -0.490351 4.580951 -1.691931 0.437871 2.340032 2.223925 5.415861 -4.800524 -3.020455 -1.505714 22.096106 -32.770703 -6.076004 -3.823709 -49.008568 -9.827563 10.204360 11.151639 -21.035352 -7.354650 14.493731 -8.029180 7.073103 32.235051 5.912096 2.567254 49.699918 7.940348 17.265559 -16.905475 36.859660 -3.483318 -1.780578 7.310317 11.114920 
